<?xml version="1.0" encoding="UTF-8" standalone="no"?>
<!-- Created with Inkscape (http://www.inkscape.org/) -->

<svg
   width="210mm"
   height="297mm"
   viewBox="0 0 210 297"
   version="1.1"
   id="svg5"
   inkscape:version="1.2.1 (9c6d41e410, 2022-07-14)"
   sodipodi:docname="saslogo.svg"
   inkscape:export-filename="saslogothumb.png"
   inkscape:export-xdpi="150"
   inkscape:export-ydpi="150"
   xmlns:inkscape="http://www.inkscape.org/namespaces/inkscape"
   xmlns:sodipodi="http://sodipodi.sourceforge.net/DTD/sodipodi-0.dtd"
   xmlns="http://www.w3.org/2000/svg"
   xmlns:svg="http://www.w3.org/2000/svg">
  <sodipodi:namedview
     id="namedview7"
     pagecolor="#ffffff"
     bordercolor="#000000"
     borderopacity="0.25"
     inkscape:showpageshadow="2"
     inkscape:pageopacity="0.0"
     inkscape:pagecheckerboard="0"
     inkscape:deskcolor="#d1d1d1"
     inkscape:document-units="mm"
     showgrid="false"
     inkscape:zoom="1.8905254"
     inkscape:cx="253.89767"
     inkscape:cy="119.80796"
     inkscape:window-width="1600"
     inkscape:window-height="930"
     inkscape:window-x="-6"
     inkscape:window-y="-6"
     inkscape:window-maximized="1"
     inkscape:current-layer="svg5" />
  <defs
     id="defs2">
    <rect
       x="140.06006"
       y="126.29694"
       width="101.19947"
       height="42.908574"
       id="rect634" />
    <rect
       x="60.719681"
       y="92.293915"
       width="386.17717"
       height="79.340383"
       id="rect526" />
    <filter
       style="color-interpolation-filters:sRGB;"
       inkscape:label="Drop Shadow"
       id="filter4328"
       x="-0.19012087"
       y="-0.46347422"
       width="1.3802417"
       height="1.9269484">
      <feFlood
         flood-opacity="0.301961"
         flood-color="rgb(0,0,0)"
         result="flood"
         id="feFlood4318" />
      <feComposite
         in="flood"
         in2="SourceGraphic"
         operator="in"
         result="composite1"
         id="feComposite4320" />
      <feGaussianBlur
         in="composite1"
         stdDeviation="3.73832"
         result="blur"
         id="feGaussianBlur4322" />
      <feOffset
         dx="0"
         dy="0"
         result="offset"
         id="feOffset4324" />
      <feComposite
         in="SourceGraphic"
         in2="offset"
         operator="over"
         result="composite2"
         id="feComposite4326" />
    </filter>
    <filter
       style="color-interpolation-filters:sRGB;"
       inkscape:label="Drop Shadow"
       id="filter5090"
       x="-0.10397602"
       y="-0.20118355"
       width="1.207952"
       height="1.4023671">
      <feFlood
         flood-opacity="0.301961"
         flood-color="rgb(0,0,0)"
         result="flood"
         id="feFlood5080" />
      <feComposite
         in="flood"
         in2="SourceGraphic"
         operator="in"
         result="composite1"
         id="feComposite5082" />
      <feGaussianBlur
         in="composite1"
         stdDeviation="3.73832"
         result="blur"
         id="feGaussianBlur5084" />
      <feOffset
         dx="0"
         dy="0"
         result="offset"
         id="feOffset5086" />
      <feComposite
         in="SourceGraphic"
         in2="offset"
         operator="over"
         result="composite2"
         id="feComposite5088" />
    </filter>
    <filter
       style="color-interpolation-filters:sRGB;"
       inkscape:label="Drop Shadow"
       id="filter5828"
       x="-0.072295421"
       y="-0.14055307"
       width="1.1445908"
       height="1.2811061">
      <feFlood
         flood-opacity="0.301961"
         flood-color="rgb(0,0,0)"
         result="flood"
         id="feFlood5818" />
      <feComposite
         in="flood"
         in2="SourceGraphic"
         operator="in"
         result="composite1"
         id="feComposite5820" />
      <feGaussianBlur
         in="composite1"
         stdDeviation="3.73832"
         result="blur"
         id="feGaussianBlur5822" />
      <feOffset
         dx="0"
         dy="0"
         result="offset"
         id="feOffset5824" />
      <feComposite
         in="SourceGraphic"
         in2="offset"
         operator="over"
         result="composite2"
         id="feComposite5826" />
    </filter>
    <filter
       style="color-interpolation-filters:sRGB;"
       inkscape:label="Drop Shadow"
       id="filter6566"
       x="-0.066378462"
       y="-0.14055307"
       width="1.1327569"
       height="1.2811061">
      <feFlood
         flood-opacity="0.301961"
         flood-color="rgb(0,0,0)"
         result="flood"
         id="feFlood6556" />
      <feComposite
         in="flood"
         in2="SourceGraphic"
         operator="in"
         result="composite1"
         id="feComposite6558" />
      <feGaussianBlur
         in="composite1"
         stdDeviation="3.73832"
         result="blur"
         id="feGaussianBlur6560" />
      <feOffset
         dx="0"
         dy="0"
         result="offset"
         id="feOffset6562" />
      <feComposite
         in="SourceGraphic"
         in2="offset"
         operator="over"
         result="composite2"
         id="feComposite6564" />
    </filter>
    <filter
       style="color-interpolation-filters:sRGB;"
       inkscape:label="Drop Shadow"
       id="filter7304"
       x="-0.066378462"
       y="-0.14055307"
       width="1.1327569"
       height="1.2811061">
      <feFlood
         flood-opacity="0.301961"
         flood-color="rgb(0,0,0)"
         result="flood"
         id="feFlood7294" />
      <feComposite
         in="flood"
         in2="SourceGraphic"
         operator="in"
         result="composite1"
         id="feComposite7296" />
      <feGaussianBlur
         in="composite1"
         stdDeviation="3.73832"
         result="blur"
         id="feGaussianBlur7298" />
      <feOffset
         dx="0"
         dy="0"
         result="offset"
         id="feOffset7300" />
      <feComposite
         in="SourceGraphic"
         in2="offset"
         operator="over"
         result="composite2"
         id="feComposite7302" />
    </filter>
    <filter
       style="color-interpolation-filters:sRGB;"
       inkscape:label="Drop Shadow"
       id="filter9264"
       x="-0.01791735"
       y="-0.094385257"
       width="1.0358347"
       height="1.1887705">
      <feFlood
         flood-opacity="0.862745"
         flood-color="rgb(0,0,0)"
         result="flood"
         id="feFlood9254" />
      <feComposite
         in="flood"
         in2="SourceGraphic"
         operator="in"
         result="composite1"
         id="feComposite9256" />
      <feGaussianBlur
         in="composite1"
         stdDeviation="0.5"
         result="blur"
         id="feGaussianBlur9258" />
      <feOffset
         dx="0"
         dy="0"
         result="offset"
         id="feOffset9260" />
      <feComposite
         in="SourceGraphic"
         in2="offset"
         operator="over"
         result="composite2"
         id="feComposite9262" />
    </filter>
  </defs>
  <g
     inkscape:label="Layer 1"
     inkscape:groupmode="layer"
     id="layer1">
    <path
       id="rect158"
       style="fill:#ffccaa;stroke-width:0.264583"
       d="M -0.42840576,-0.21420288 H 134.73529 V 63.619049 H -0.42840576 Z" />
    <path
       id="path1190"
       style="fill:#ffb380;stroke-width:0.264583;filter:url(#filter7304)"
       d="m 35.426261,-0.21445719 c 0,0 -6.450044,0.60980406 -8.835119,2.53266199 C 21.730601,6.2367937 21.87483,12.355931 16.77304,15.95481 12.076677,19.267695 5.4658262,18.224844 0.68161214,21.409546 0.08946545,21.80372 -0.42839762,23.232174 -0.42839762,23.232174 V 63.618856 H 134.73545 V -0.21445719 Z"
       sodipodi:nodetypes="csssccccc" />
    <path
       id="path1195"
       style="fill:#ff9955;stroke-width:0.264583;filter:url(#filter6566)"
       d="m 90.355208,-0.21445719 c 0,0 -9.705874,0.0611636 -13.717509,2.39623619 -6.669818,3.882335 -7.291559,9.129173 -14.455052,12.0003 -6.756254,2.707906 -15.239502,0.464286 -21.954612,3.27267 -7.80106,3.262548 -8.514629,12.618844 -15.954918,16.636661 -6.579964,3.553234 -15.6969077,1.088414 -21.9549122,5.182162 -1.6239492,1.062326 -2.74660242,5.13302 -2.74660242,5.13302 V 63.618856 H 134.73545 V -0.21445719 Z"
       sodipodi:nodetypes="csssssccccc" />
    <path
       id="path1312"
       style="fill:#ff7f2a;stroke-width:0.264583;filter:url(#filter5828)"
       d="m 128.07229,-0.21445719 c 0,0 -7.2637,10.36417119 -12.5703,13.44207319 -7.51545,4.359065 -13.15868,2.804955 -20.864271,6.818345 -6.967045,3.628723 -13.741195,11.272201 -20.727586,14.863536 -7.542062,3.876976 -17.386418,1.950189 -24.682274,6.272702 -5.73543,3.39802 -9.198863,9.923733 -15.13622,12.955149 -5.4907,2.803367 -12.527386,0.298865 -18.000632,3.136159 -2.47671,1.28391 -5.457031,6.345349 -5.457031,6.345349 H 134.73545 V -0.21445719 Z"
       sodipodi:nodetypes="csssssscccc" />
    <path
       id="path858"
       style="fill:#ff6600;stroke-width:0.264583;filter:url(#filter5090)"
       d="m 134.73545,19.022922 c -3.89913,8.909768 -6.24063,8.983438 -10.18543,12.668684 -5.78432,5.403735 -16.06147,4.825713 -22.74723,8.867566 -6.792395,4.106329 -11.512553,10.530479 -18.871756,13.503822 -4.631497,1.871267 -18.9761,1.559716 -23.224397,3.186051 -7.367586,2.820462 -7.4683,6.148822 -11.260009,6.369811 l 86.288822,0 z"
       sodipodi:nodetypes="cssssccc" />
    <path
       id="path1477"
       style="fill:#d45500;stroke-width:0.264583;filter:url(#filter4328)"
       d="m 134.73545,44.260782 c 0,0 -0.77302,2.536847 -4.69824,4.10931 -7.43748,2.979493 -13.08961,0.583861 -20.14288,4.384477 -4.15328,2.237972 -7.27426,6.461323 -11.549324,8.617902 -4.275067,2.156578 -10.800421,2.246385 -10.800421,2.246385 h 47.190865 z"
       sodipodi:nodetypes="csssccc" />
  </g>
  <g
     aria-label="SAS-32"
     id="text640"
     style="font-size:19.7556px;font-family:'Courier New';-inkscape-font-specification:'Courier New';stroke-width:0.264583;filter:url(#filter9264)">
    <path
       d="m 40.708141,27.224303 v -0.270097 q 0,-0.289388 0.106109,-0.41479 0.115755,-0.125402 0.299035,-0.125402 0.183279,0 0.289389,0.125402 0.115755,0.125402 0.115755,0.41479 v 2.064306 q 0,0.289389 -0.115755,0.414791 -0.10611,0.125401 -0.289389,0.125401 -0.173633,0 -0.289389,-0.115755 -0.106109,-0.115755 -0.115755,-0.376205 -0.04823,-0.810289 -0.839227,-1.45659 -0.78135,-0.646301 -2.05466,-0.646301 -1.340834,0 -2.13183,0.694533 -0.790995,0.684886 -0.790995,1.620576 0,0.482315 0.221864,0.877812 0.221865,0.395498 0.588424,0.646302 0.366559,0.241157 0.829581,0.395498 0.463022,0.144694 1.446943,0.308681 1.649515,0.270096 2.276524,0.549838 0.839227,0.376206 1.263664,1.0418 0.434083,0.665593 0.434083,1.572345 0,1.389065 -1.109323,2.372987 -1.109323,0.974275 -2.99035,0.974275 -2.112537,0 -3.376201,-1.321542 v 0.463022 q 0,0.289389 -0.115755,0.414791 -0.10611,0.125401 -0.289389,0.125401 -0.173633,0 -0.289389,-0.125401 Q 33.66635,37.449369 33.66635,37.15998 v -2.237939 q 0,-0.299035 0.106109,-0.424437 0.115755,-0.125401 0.299035,-0.125401 0.173633,0 0.279742,0.115755 0.115756,0.115756 0.125402,0.376205 0.04823,0.887459 0.945336,1.620577 0.906752,0.723472 2.430865,0.723472 1.524114,0 2.401926,-0.762057 0.887459,-0.762057 0.887459,-1.803856 0,-0.636655 -0.33762,-1.128616 -0.33762,-0.501607 -1.003214,-0.790996 -0.463022,-0.202572 -1.929258,-0.453375 -2.016075,-0.33762 -2.903533,-1.032153 -0.887459,-0.694533 -0.887459,-1.977489 0,-1.273311 1.012861,-2.189708 1.022506,-0.916398 2.691314,-0.916398 1.697747,0 2.922826,1.070739 z"
       id="path8460" />
    <path
       d="m 52.331919,33.928473 h -5.324751 l -1.090031,2.961411 h 1.553053 q 0.289388,0 0.41479,0.115756 0.125402,0.106109 0.125402,0.289388 0,0.173633 -0.125402,0.289389 -0.125402,0.115755 -0.41479,0.115755 h -3.028935 q -0.289389,0 -0.414791,-0.115755 -0.125401,-0.115756 -0.125401,-0.289389 0,-0.183279 0.125401,-0.289388 0.125402,-0.115756 0.414791,-0.115756 h 0.627009 l 3.578773,-9.665581 h -2.39228 q -0.289388,0 -0.41479,-0.10611 -0.125402,-0.115755 -0.125402,-0.299035 0,-0.183279 0.125402,-0.289388 0.125402,-0.115756 0.41479,-0.115756 h 4.080381 l 3.954978,10.47587 h 0.627009 q 0.289388,0 0.41479,0.115756 0.125402,0.106109 0.125402,0.289388 0,0.173633 -0.125402,0.289389 -0.125402,0.115755 -0.41479,0.115755 h -3.019289 q -0.299035,0 -0.424436,-0.115755 -0.125402,-0.115756 -0.125402,-0.289389 0,-0.183279 0.125402,-0.289388 0.125401,-0.115756 0.424436,-0.115756 h 1.543407 z m -0.308681,-0.810288 -2.237939,-5.893882 h -0.299035 l -2.170415,5.893882 z"
       id="path8462" />
    <path
       d="m 64.41872,27.224303 v -0.270097 q 0,-0.289388 0.106109,-0.41479 0.115755,-0.125402 0.299035,-0.125402 0.183279,0 0.289389,0.125402 0.115755,0.125402 0.115755,0.41479 v 2.064306 q 0,0.289389 -0.115755,0.414791 -0.10611,0.125401 -0.289389,0.125401 -0.173633,0 -0.289389,-0.115755 -0.106109,-0.115755 -0.115755,-0.376205 -0.04823,-0.810289 -0.839227,-1.45659 -0.78135,-0.646301 -2.05466,-0.646301 -1.340834,0 -2.13183,0.694533 -0.790996,0.684886 -0.790996,1.620576 0,0.482315 0.221865,0.877812 0.221865,0.395498 0.588424,0.646302 0.366559,0.241157 0.829581,0.395498 0.463021,0.144694 1.446943,0.308681 1.649515,0.270096 2.276524,0.549838 0.839227,0.376206 1.263664,1.0418 0.434083,0.665593 0.434083,1.572345 0,1.389065 -1.109323,2.372987 -1.109323,0.974275 -2.99035,0.974275 -2.112537,0 -3.376201,-1.321542 v 0.463022 q 0,0.289389 -0.115755,0.414791 -0.10611,0.125401 -0.289389,0.125401 -0.173633,0 -0.289389,-0.125401 -0.115755,-0.125402 -0.115755,-0.414791 v -2.237939 q 0,-0.299035 0.106109,-0.424437 0.115755,-0.125401 0.299035,-0.125401 0.173633,0 0.279742,0.115755 0.115756,0.115756 0.125402,0.376205 0.04823,0.887459 0.945336,1.620577 0.906752,0.723472 2.430865,0.723472 1.524114,0 2.401926,-0.762057 0.887459,-0.762057 0.887459,-1.803856 0,-0.636655 -0.33762,-1.128616 -0.33762,-0.501607 -1.003214,-0.790996 -0.463022,-0.202572 -1.929258,-0.453375 -2.016075,-0.33762 -2.903533,-1.032153 -0.887459,-0.694533 -0.887459,-1.977489 0,-1.273311 1.012861,-2.189708 1.022506,-0.916398 2.691314,-0.916398 1.697747,0 2.922826,1.070739 z"
       id="path8464" />
    <path
       d="m 77.508734,31.536194 v 1.157554 h -8.26687 v -1.157554 z"
       id="path8466" />
    <path
       d="m 86.894574,31.111757 q 1.118969,0.501607 1.707393,1.379419 0.588423,0.868166 0.588423,1.813503 0,1.456589 -1.186493,2.575559 -1.176847,1.109323 -2.951765,1.109323 -1.041799,0 -2.160768,-0.443729 -1.11897,-0.443729 -1.562699,-0.906751 -0.144694,-0.154341 -0.144694,-0.327974 0,-0.154341 0.106109,-0.270096 0.115755,-0.115756 0.270096,-0.115756 0.15434,0 0.347266,0.144695 1.495175,1.109323 3.163983,1.109323 1.408358,0 2.353695,-0.877812 0.954982,-0.887459 0.954982,-1.967843 0,-0.723472 -0.472668,-1.418005 -0.463022,-0.694533 -1.340834,-1.090031 -0.877812,-0.405144 -1.774917,-0.405144 -0.289389,0 -0.414791,-0.106109 -0.125402,-0.115755 -0.125402,-0.299035 0,-0.173633 0.115756,-0.289389 0.125402,-0.115755 0.366559,-0.115755 l 0.694533,0.0096 q 1.09003,0 1.794209,-0.665594 0.713826,-0.665594 0.713826,-1.543406 0,-0.906751 -0.742764,-1.601284 -0.742765,-0.694533 -1.938904,-0.694533 -0.839228,0 -1.543407,0.289389 -0.704179,0.289389 -1.128616,0.790996 -0.15434,0.192925 -0.241157,0.241157 -0.07717,0.03859 -0.183279,0.03859 -0.163987,0 -0.279743,-0.106109 -0.115755,-0.115756 -0.115755,-0.270096 0,-0.385852 0.839227,-0.974275 1.167201,-0.819935 2.65273,-0.819935 1.533759,0 2.517681,0.926044 0.983921,0.916397 0.983921,2.189707 0,0.810289 -0.472668,1.53376 -0.472668,0.723472 -1.389065,1.157555 z"
       id="path8468" />
    <path
       d="m 93.598745,36.889884 h 6.221856 v -0.318327 q 0,-0.289389 0.115756,-0.414791 0.115753,-0.125402 0.299033,-0.125402 0.17363,0 0.28939,0.125402 0.11576,0.125402 0.11576,0.414791 v 1.128615 h -7.832791 v -1.196139 q 2.46945,-2.218647 4.803852,-4.514464 1.090031,-1.070738 1.495175,-1.572345 0.405144,-0.501607 0.549838,-0.877812 0.154341,-0.385852 0.154341,-0.771703 0,-1.041799 -0.839227,-1.842441 -0.839227,-0.800642 -2.025721,-0.800642 -1.061092,0 -1.881026,0.607716 -0.819935,0.607716 -1.061092,1.504821 -0.05788,0.231511 -0.144694,0.299035 -0.115756,0.09646 -0.270097,0.09646 -0.163986,0 -0.279742,-0.106109 -0.106109,-0.115756 -0.106109,-0.270097 0,-0.463021 0.501607,-1.254017 0.511253,-0.790996 1.398712,-1.244371 0.897105,-0.453376 1.832795,-0.453376 1.514467,0 2.604498,1.051446 1.090031,1.051445 1.090031,2.382633 0,0.559485 -0.18328,1.032153 -0.18328,0.463022 -0.627009,1.022506 -0.434083,0.549839 -1.572345,1.668808 -2.855301,2.816717 -4.649511,4.369769 z"
       id="path8470" />
  </g>
  <g
     inkscape:groupmode="layer"
     id="layer2"
     inkscape:label="Layer 2" />
</svg>
